<?xml version="1.0" encoding="UTF-8"?>
<svg id="svg2" width="300" height="300" enable-background="new" version="1.1" xmlns="http://www.w3.org/2000/svg" xmlns:xlink="http://www.w3.org/1999/xlink">
 <g id="layer10" transform="translate(-113 140.35)" opacity=".99">
  <text id="text2124" x="13.86202" y="253.8631" fill="#000000" font-family="-apple-system,BlinkMacSystemFont,'Segoe UI',Roboto,Oxygen-Sans,Ubuntu,Cantarell,'Helvetica Neue',sans-serif"  font-size="5.3333px" font-weight="300" letter-spacing="0px" word-spacing="0px" style="line-height:1.25" xml:space="preserve"><tspan id="tspan2122" x="13.86202" y="258.80008"/></text>
 </g>
 <g id="g1002" transform="matrix(.95597 0 0 .95597 8.0923 -27.25)">
  <g id="g1024" transform="matrix(.86988 0 0 .86988 20.762 10.493)">
   <rect id="rect10285" transform="rotate(-90)" x="-321.35" y="134.19" width="240.53" height="25.187" ry=".32091" fill="#343434" stroke="#262626" stroke-dasharray="0.72147363, 0.36073681000000002" stroke-linecap="square" stroke-width=".36074"/>
   <text id="text10283" transform="rotate(-.52446)" x="144.0704" y="302.228" fill="#ffffff" font-family="-apple-system,BlinkMacSystemFont,'Segoe UI',Roboto,Oxygen-Sans,Ubuntu,Cantarell,'Helvetica Neue',sans-serif"  font-size="4.8098px" letter-spacing="0px" stroke-width=".36074" word-spacing="0px" style="line-height:1.25" xml:space="preserve"><tspan id="tspan10281" x="144.0704" y="302.228" fill="#ffffff" font-family="-apple-system,BlinkMacSystemFont,'Segoe UI',Roboto,Oxygen-Sans,Ubuntu,Cantarell,'Helvetica Neue',sans-serif"  font-size="13.468px" font-weight="600" stroke-width=".36074" text-align="center" text-anchor="middle">14</tspan></text>
   <g fill="#fff">
    <rect id="rect10287" transform="rotate(-90)" x="-320.62" y="135.19" width="14.986" height="2.9636" ry=".48557"/>
    <rect id="rect10287-2" transform="rotate(-90)" x="-320.62" y="139.25" width="14.986" height="2.9636" ry=".48557"/>
    <rect id="rect10304" transform="rotate(-90)" x="-320.62" y="143.3" width="14.986" height="2.9636" ry=".48557"/>
    <rect id="rect10304-5" transform="rotate(-90)" x="-320.62" y="147.36" width="14.986" height="2.9636" ry=".48557"/>
    <rect id="rect10330" transform="rotate(-90)" x="-320.62" y="151.41" width="14.986" height="2.9636" ry=".48557"/>
    <rect id="rect10332" transform="rotate(-90)" x="-320.62" y="151.41" width="14.986" height="2.9636" ry=".48557"/>
    <rect id="rect10334" transform="rotate(-90)" x="-320.62" y="155.47" width="14.986" height="2.9636" ry=".48557"/>
   </g>
   <path id="path10353" d="m145.85 126.59h1.8045v-10.823h-1.8045zm0 14.43h1.8045v-10.823h-1.8045zm0 14.43h1.8045v-10.823h-1.8045zm0 14.432h1.8045v-10.824h-1.8045zm0 14.43h1.8045v-10.823h-1.8045zm0 14.43h1.8045v-10.823h-1.8045zm0 14.43h1.8045v-10.823h-1.8045zm0 14.43h1.8045v-10.823h-1.8045zm0 14.432h1.8045v-10.823h-1.8045zm0 14.43h1.8045v-10.823h-1.8045zm0 14.43h1.8045v-10.823h-1.8045zm0 14.43h1.8045v-10.823h-1.8045z" color="#000000" color-rendering="auto" dominant-baseline="auto" enable-background="accumulate" fill="#fffbfb" image-rendering="auto" shape-rendering="auto" solid-color="#000000" style="font-feature-settings:normal;font-variant-alternates:normal;font-variant-caps:normal;font-variant-ligatures:normal;font-variant-numeric:normal;font-variant-position:normal;isolation:auto;mix-blend-mode:normal;shape-padding:0;text-decoration-color:#000000;text-decoration-line:none;text-decoration-style:solid;text-indent:0;text-orientation:mixed;text-transform:none;white-space:normal"/>
   <g fill="#fff">
    <rect id="rect10287-6" transform="rotate(-90)" x="-96.932" y="135.24" width="14.986" height="2.9636" ry=".48557"/>
    <rect id="rect10287-2-8" transform="rotate(-90)" x="-96.932" y="139.29" width="14.986" height="2.9636" ry=".48557"/>
    <rect id="rect10304-0" transform="rotate(-90)" x="-96.932" y="143.35" width="14.986" height="2.9636" ry=".48557"/>
    <rect id="rect10304-5-2" transform="rotate(-90)" x="-96.932" y="147.4" width="14.986" height="2.9636" ry=".48557"/>
    <rect id="rect10330-1" transform="rotate(-90)" x="-96.932" y="151.46" width="14.986" height="2.9636" ry=".48557"/>
    <rect id="rect10332-0" transform="rotate(-90)" x="-96.932" y="151.46" width="14.986" height="2.9636" ry=".48557"/>
    <rect id="rect10334-5" transform="rotate(-90)" x="-96.932" y="155.51" width="14.986" height="2.9636" ry=".48557"/>
   </g>
   <text id="text10283-1" transform="rotate(179.48)" x="-145.83543" y="-101.86958" fill="#ffffff" font-family="-apple-system,BlinkMacSystemFont,'Segoe UI',Roboto,Oxygen-Sans,Ubuntu,Cantarell,'Helvetica Neue',sans-serif"  font-size="4.8098px" letter-spacing="0px" stroke-width=".36074" word-spacing="0px" style="line-height:1.25" xml:space="preserve"><tspan id="tspan10281-1" x="-145.83543" y="-101.86958" fill="#ffffff" font-family="-apple-system,BlinkMacSystemFont,'Segoe UI',Roboto,Oxygen-Sans,Ubuntu,Cantarell,'Helvetica Neue',sans-serif"  font-size="13.468px" font-weight="600" stroke-width=".36074" text-align="center" text-anchor="middle">32</tspan></text>
  </g>
 </g>
</svg>
